<svg width="64" height="64" viewBox="0 0 64 64" fill="none" xmlns="http://www.w3.org/2000/svg">
<path fill-rule="evenodd" clip-rule="evenodd" d="M51.1999 0C52.5254 0 53.5999 1.07452 53.5999 2.4V10.4004H61.5999C62.9254 10.4004 63.9999 11.4749 63.9999 12.8004C63.9999 14.1259 62.9254 15.2004 61.5999 15.2004H53.5999V23.2C53.5999 24.5255 52.5254 25.6 51.1999 25.6C49.8745 25.6 48.7999 24.5255 48.7999 23.2V15.2004H40.7999C39.4745 15.2004 38.3999 14.1259 38.3999 12.8004C38.3999 11.4749 39.4745 10.4004 40.7999 10.4004H48.7999V2.4C48.7999 1.07452 49.8745 0 51.1999 0ZM3.19995 12C3.19995 7.13989 7.13985 3.2 12 3.2H29.5999C30.9254 3.2 32 4.27452 32 5.6C32 6.92548 30.9254 8 29.5999 8H12C9.79081 8 7.99995 9.79086 7.99995 12V35.1738L20.8722 24.5491C21.8401 23.7502 23.2601 23.8319 24.1299 24.7365L33.9887 34.9897L45.0687 27.6031C45.9948 26.9857 47.2238 27.086 48.0375 27.8455L60.0375 39.0455C60.5238 39.4994 60.7999 40.1348 60.7999 40.8V52C60.7999 56.8601 56.8601 60.8 51.9999 60.8H12C7.13985 60.8 3.19995 56.8601 3.19995 52V12ZM37.369 38.5051L44.1299 45.5365C45.0487 46.492 45.0189 48.0113 44.0634 48.93C43.108 49.8487 41.5887 49.8189 40.6699 48.8635L22.2119 29.6671L7.99995 41.3977V52C7.99995 54.2091 9.79081 56 12 56H51.9999C54.2091 56 55.9999 54.2091 55.9999 52V41.8429L46.1509 32.6505L37.369 38.5051Z" fill="#A8A8A8"/>
</svg>
