<svg width="21" height="21" viewBox="0 0 21 21" fill="none" xmlns="http://www.w3.org/2000/svg">
<path fill-rule="evenodd" clip-rule="evenodd" d="M10.623 0.278809C4.95887 0.278809 0.367188 4.87049 0.367188 10.5346C0.367188 16.1988 4.95887 20.7904 10.623 20.7904C16.2871 20.7904 20.8788 16.1988 20.8788 10.5346C20.8788 4.87049 16.2871 0.278809 10.623 0.278809ZM7.52384 6.2268C7.19008 5.89304 6.64895 5.89304 6.31518 6.2268C5.98142 6.56057 5.98142 7.1017 6.31518 7.43546L9.41434 10.5346L6.31518 13.6338C5.98142 13.9675 5.98142 14.5087 6.31518 14.8424C6.64895 15.1762 7.19008 15.1762 7.52384 14.8424L10.623 11.7433L13.7222 14.8424C14.0559 15.1762 14.5971 15.1762 14.9308 14.8424C15.2646 14.5087 15.2646 13.9675 14.9308 13.6338L11.8317 10.5346L14.9308 7.43546C15.2646 7.1017 15.2646 6.56057 14.9308 6.2268C14.5971 5.89304 14.0559 5.89304 13.7222 6.2268L10.623 9.32596L7.52384 6.2268Z" fill="white"/>
</svg>
