<svg width="44" height="44" viewBox="0 0 44 44" fill="none" xmlns="http://www.w3.org/2000/svg">
<path fill-rule="evenodd" clip-rule="evenodd" d="M1.11627 7.41667C1.11627 3.87284 3.97305 1 7.49707 1H27.2195C30.7436 1 33.6003 3.87284 33.6003 7.41667V10.3333H36.5007C40.0247 10.3333 42.8815 13.2062 42.8815 16.75V36.5833C42.8815 40.1272 40.0247 43 36.5007 43H16.7782C13.2542 43 10.3974 40.1272 10.3974 36.5833V33.6667H7.49707C3.97305 33.6667 1.11627 30.7938 1.11627 27.25V7.41667ZM10.3974 30.1667V16.75C10.3974 13.2062 13.2542 10.3333 16.7782 10.3333H30.1199V7.41667C30.1199 5.80584 28.8214 4.5 27.2195 4.5H7.49707C5.89525 4.5 4.59671 5.80584 4.59671 7.41667V27.25C4.59671 28.8608 5.89525 30.1667 7.49707 30.1667H10.3974ZM16.7782 13.8333C15.1764 13.8333 13.8779 15.1392 13.8779 16.75V36.5833C13.8779 38.1942 15.1764 39.5 16.7782 39.5H36.5007C38.1025 39.5 39.4011 38.1942 39.4011 36.5833V16.75C39.4011 15.1392 38.1025 13.8333 36.5007 13.8333H16.7782Z" fill="#5B88DE" stroke="#5B88DE" stroke-linejoin="round"/>
</svg>
