<svg width="29" height="29" viewBox="0 0 29 29" fill="none" xmlns="http://www.w3.org/2000/svg">
<path fill-rule="evenodd" clip-rule="evenodd" d="M9.46255 0.549805C10.1046 0.549805 10.625 1.07027 10.625 1.7123V3.6498H18.375V1.7123C18.375 1.07027 18.8955 0.549805 19.5375 0.549805C20.1796 0.549805 20.7 1.07027 20.7 1.7123V3.6498H24.1875C26.5417 3.6498 28.45 5.55819 28.45 7.9123V24.1873C28.45 26.5414 26.5417 28.4498 24.1875 28.4498H4.81255C2.45844 28.4498 0.550049 26.5414 0.550049 24.1873V7.9123C0.550049 5.55819 2.45844 3.6498 4.81255 3.6498H8.30005V1.7123C8.30005 1.07027 8.82052 0.549805 9.46255 0.549805ZM8.30005 5.9748H4.81255C3.7425 5.9748 2.87505 6.84225 2.87505 7.9123V11.3998H26.125V7.9123C26.125 6.84225 25.2576 5.9748 24.1875 5.9748H20.7V7.1373C20.7 7.77934 20.1796 8.2998 19.5375 8.2998C18.8955 8.2998 18.375 7.77934 18.375 7.1373V5.9748H10.625V7.1373C10.625 7.77934 10.1046 8.2998 9.46255 8.2998C8.82052 8.2998 8.30005 7.77934 8.30005 7.1373V5.9748ZM26.125 13.7248H2.87505V24.1873C2.87505 25.2574 3.7425 26.1248 4.81255 26.1248H24.1875C25.2576 26.1248 26.125 25.2574 26.125 24.1873V13.7248Z" fill="#A7C5FF" stroke="#A7C5FF" stroke-linecap="round" stroke-linejoin="round"/>
</svg>
