<svg width="28" height="25" viewBox="0 0 28 25" fill="none" xmlns="http://www.w3.org/2000/svg">
<path fill-rule="evenodd" clip-rule="evenodd" d="M6.66159 0.500001H6.89396C7.66552 0.499986 8.30952 0.499975 8.83563 0.539653C9.38436 0.581037 9.89953 0.670518 10.3867 0.899644C11.1341 1.25118 11.7418 1.81211 12.1226 2.50204C12.3708 2.95172 12.4678 3.42726 12.5126 3.93377C12.5556 4.41942 12.5556 5.01389 12.5556 5.7261V5.94057C12.5556 6.65278 12.5556 7.24725 12.5126 7.73289C12.4678 8.23941 12.3708 8.71495 12.1226 9.16463C11.7418 9.85456 11.1341 10.4155 10.3867 10.767C9.89953 10.9961 9.38436 11.0856 8.83564 11.127C8.30952 11.1667 7.66551 11.1667 6.89395 11.1667H6.6616C5.89004 11.1667 5.24604 11.1667 4.71992 11.127C4.1712 11.0856 3.65603 10.9961 3.16887 10.767C2.42145 10.4155 1.81378 9.85456 1.43295 9.16463C1.18473 8.71495 1.08779 8.23941 1.04296 7.73289C0.999972 7.24725 0.999985 6.65279 1 5.94058V5.72609C0.999985 5.01388 0.999972 4.41942 1.04296 3.93377C1.08779 3.42726 1.18473 2.95172 1.43295 2.50204C1.81378 1.81211 2.42145 1.25118 3.16887 0.899644C3.65603 0.670518 4.1712 0.581037 4.71992 0.539653C5.24604 0.499975 5.89004 0.499986 6.66159 0.500001ZM4.89636 2.53301C4.48162 2.56429 4.28333 2.62013 4.15252 2.68166C3.81278 2.84145 3.53657 3.09641 3.36346 3.41002C3.29681 3.53076 3.23631 3.71381 3.20243 4.09664C3.16751 4.49114 3.16667 5.00343 3.16667 5.76667V5.9C3.16667 6.66324 3.16751 7.17552 3.20243 7.57003C3.23631 7.95286 3.29681 8.1359 3.36346 8.25665C3.53657 8.57025 3.81278 8.82522 4.15252 8.98501C4.28333 9.04653 4.48162 9.10238 4.89636 9.13366C5.32374 9.16589 5.87872 9.16667 6.70556 9.16667H6.85C7.67684 9.16667 8.23182 9.16589 8.6592 9.13366C9.07393 9.10238 9.27223 9.04653 9.40304 8.98501C9.74278 8.82522 10.019 8.57025 10.1921 8.25665C10.2587 8.1359 10.3192 7.95286 10.3531 7.57003C10.388 7.17552 10.3889 6.66324 10.3889 5.9V5.76667C10.3889 5.00343 10.388 4.49114 10.3531 4.09664C10.3192 3.71381 10.2587 3.53076 10.1921 3.41002C10.019 3.09641 9.74278 2.84145 9.40304 2.68166C9.27223 2.62013 9.07393 2.56429 8.6592 2.53301C8.23182 2.50078 7.67684 2.5 6.85 2.5H6.70556C5.87872 2.5 5.32374 2.50078 4.89636 2.53301ZM21.106 0.500001H21.3384C22.11 0.499986 22.754 0.499975 23.2801 0.539653C23.8288 0.581037 24.344 0.670519 24.8311 0.899644C25.5785 1.25118 26.1862 1.81211 26.5671 2.50204C26.8153 2.95172 26.9122 3.42726 26.957 3.93377C27 4.41941 27 5.01387 27 5.72606V5.9406C27 6.6528 27 7.24725 26.957 7.73289C26.9122 8.23941 26.8153 8.71495 26.5671 9.16463C26.1862 9.85456 25.5785 10.4155 24.8311 10.767C24.344 10.9961 23.8288 11.0856 23.2801 11.127C22.754 11.1667 22.11 11.1667 21.3384 11.1667H21.106C20.3345 11.1667 19.6905 11.1667 19.1644 11.127C18.6156 11.0856 18.1005 10.9961 17.6133 10.767C16.8659 10.4155 16.2582 9.85456 15.8774 9.16463C15.6292 8.71495 15.5322 8.23941 15.4874 7.73289C15.4444 7.24725 15.4444 6.6528 15.4444 5.9406V5.72606C15.4444 5.01387 15.4444 4.41941 15.4874 3.93377C15.5322 3.42726 15.6292 2.95172 15.8774 2.50204C16.2582 1.81211 16.8659 1.25118 17.6133 0.899644C18.1005 0.670519 18.6156 0.581037 19.1644 0.539653C19.6905 0.499975 20.3345 0.499986 21.106 0.500001ZM19.3408 2.53301C18.9261 2.56429 18.7278 2.62013 18.597 2.68166C18.2572 2.84145 17.981 3.09641 17.8079 3.41002C17.7413 3.53076 17.6808 3.71381 17.6469 4.09664C17.612 4.49114 17.6111 5.00343 17.6111 5.76667V5.9C17.6111 6.66324 17.612 7.17552 17.6469 7.57003C17.6808 7.95286 17.7413 8.1359 17.8079 8.25665C17.981 8.57025 18.2572 8.82522 18.597 8.98501C18.7278 9.04653 18.9261 9.10238 19.3408 9.13366C19.7682 9.16589 20.3232 9.16667 21.15 9.16667H21.2944C22.1213 9.16667 22.6763 9.16589 23.1036 9.13366C23.5184 9.10238 23.7167 9.04653 23.8475 8.98501C24.1872 8.82522 24.4634 8.57025 24.6365 8.25665C24.7032 8.1359 24.7637 7.95286 24.7976 7.57003C24.8325 7.17552 24.8333 6.66324 24.8333 5.9V5.76667C24.8333 5.00343 24.8325 4.49114 24.7976 4.09664C24.7637 3.71381 24.7032 3.53076 24.6365 3.41002C24.4634 3.09641 24.1872 2.84145 23.8475 2.68166C23.7167 2.62013 23.5184 2.56429 23.1036 2.53301C22.6763 2.50078 22.1213 2.5 21.2944 2.5H21.15C20.3232 2.5 19.7682 2.50078 19.3408 2.53301ZM6.66157 13.8333H6.89399C7.66553 13.8333 8.30953 13.8333 8.83563 13.873C9.38436 13.9144 9.89953 14.0039 10.3867 14.233C11.1341 14.5845 11.7418 15.1454 12.1226 15.8354C12.3708 16.2851 12.4678 16.7606 12.5126 17.2671C12.5556 17.7528 12.5556 18.3472 12.5556 19.0594V19.2739C12.5556 19.9861 12.5556 20.5806 12.5126 21.0662C12.4678 21.5727 12.3708 22.0483 12.1226 22.498C11.7418 23.1879 11.1341 23.7488 10.3867 24.1004C9.89953 24.3295 9.38436 24.419 8.83564 24.4603C8.30953 24.5 7.66553 24.5 6.89399 24.5H6.66157C5.89003 24.5 5.24603 24.5 4.71992 24.4603C4.1712 24.419 3.65603 24.3295 3.16887 24.1004C2.42145 23.7488 1.81378 23.1879 1.43295 22.498C1.18473 22.0483 1.08779 21.5727 1.04296 21.0662C0.999972 20.5806 0.999985 19.9861 1 19.2739V19.0594C0.999985 18.3472 0.999972 17.7527 1.04296 17.2671C1.08779 16.7606 1.18473 16.2851 1.43295 15.8354C1.81378 15.1454 2.42145 14.5845 3.16887 14.233C3.65603 14.0039 4.1712 13.9144 4.71992 13.873C5.24603 13.8333 5.89003 13.8333 6.66157 13.8333ZM4.89636 15.8663C4.48162 15.8976 4.28333 15.9535 4.15252 16.015C3.81278 16.1748 3.53657 16.4297 3.36346 16.7433C3.29681 16.8641 3.23631 17.0471 3.20243 17.43C3.16751 17.8245 3.16667 18.3368 3.16667 19.1V19.2333C3.16667 19.9966 3.16751 20.5089 3.20243 20.9034C3.23631 21.2862 3.29681 21.4692 3.36346 21.59C3.53657 21.9036 3.81278 22.1586 4.15252 22.3183C4.28333 22.3799 4.48162 22.4357 4.89636 22.467C5.32374 22.4992 5.87872 22.5 6.70556 22.5H6.85C7.67684 22.5 8.23182 22.4992 8.6592 22.467C9.07393 22.4357 9.27223 22.3799 9.40304 22.3183C9.74278 22.1586 10.019 21.9036 10.1921 21.59C10.2587 21.4692 10.3192 21.2862 10.3531 20.9034C10.388 20.5089 10.3889 19.9966 10.3889 19.2333V19.1C10.3889 18.3368 10.388 17.8245 10.3531 17.43C10.3192 17.0471 10.2587 16.8641 10.1921 16.7433C10.019 16.4297 9.74278 16.1748 9.40304 16.015C9.27223 15.9535 9.07393 15.8976 8.6592 15.8663C8.23182 15.8341 7.67684 15.8333 6.85 15.8333H6.70556C5.87872 15.8333 5.32374 15.8341 4.89636 15.8663ZM21.106 13.8333H21.3384C22.11 13.8333 22.754 13.8333 23.2801 13.873C23.8288 13.9144 24.344 14.0039 24.8311 14.233C25.5785 14.5845 26.1862 15.1454 26.5671 15.8354C26.8153 16.2851 26.9122 16.7606 26.957 17.2671C27 17.7527 27 18.3472 27 19.0594V19.2739C27 19.9861 27 20.5806 26.957 21.0662C26.9122 21.5727 26.8153 22.0483 26.5671 22.498C26.1862 23.1879 25.5785 23.7488 24.8311 24.1004C24.344 24.3295 23.8288 24.419 23.2801 24.4603C22.754 24.5 22.11 24.5 21.3384 24.5H21.106C20.3345 24.5 19.6905 24.5 19.1644 24.4603C18.6156 24.419 18.1005 24.3295 17.6133 24.1004C16.8659 23.7488 16.2582 23.1879 15.8774 22.498C15.6292 22.0483 15.5322 21.5727 15.4874 21.0662C15.4444 20.5806 15.4444 19.9861 15.4444 19.2739V19.0594C15.4444 18.3472 15.4444 17.7527 15.4874 17.2671C15.5322 16.7606 15.6292 16.2851 15.8774 15.8354C16.2582 15.1454 16.8659 14.5845 17.6133 14.233C18.1005 14.0039 18.6156 13.9144 19.1644 13.873C19.6905 13.8333 20.3345 13.8333 21.106 13.8333ZM19.3408 15.8663C18.9261 15.8976 18.7278 15.9535 18.597 16.015C18.2572 16.1748 17.981 16.4297 17.8079 16.7433C17.7413 16.8641 17.6808 17.0471 17.6469 17.43C17.612 17.8245 17.6111 18.3368 17.6111 19.1V19.2333C17.6111 19.9966 17.612 20.5089 17.6469 20.9034C17.6808 21.2862 17.7413 21.4692 17.8079 21.59C17.981 21.9036 18.2572 22.1586 18.597 22.3183C18.7278 22.3799 18.9261 22.4357 19.3408 22.467C19.7682 22.4992 20.3232 22.5 21.15 22.5H21.2944C22.1213 22.5 22.6763 22.4992 23.1036 22.467C23.5184 22.4357 23.7167 22.3799 23.8475 22.3183C24.1872 22.1586 24.4634 21.9036 24.6365 21.59C24.7032 21.4692 24.7637 21.2862 24.7976 20.9034C24.8325 20.5089 24.8333 19.9966 24.8333 19.2333V19.1C24.8333 18.3368 24.8325 17.8245 24.7976 17.43C24.7637 17.0471 24.7032 16.8641 24.6365 16.7433C24.4634 16.4297 24.1872 16.1748 23.8475 16.015C23.7167 15.9535 23.5184 15.8976 23.1036 15.8663C22.6763 15.8341 22.1213 15.8333 21.2944 15.8333H21.15C20.3232 15.8333 19.7682 15.8341 19.3408 15.8663Z" fill="white" stroke="white" stroke-linejoin="round"/>
</svg>
