<svg width="42" height="33" viewBox="0 0 42 33" fill="none" xmlns="http://www.w3.org/2000/svg">
<path fill-rule="evenodd" clip-rule="evenodd" d="M11.3162 8.28667C8.36894 10.7606 6.04763 13.7099 4.74071 15.5466C4.52784 15.8458 4.42793 15.9885 4.36102 16.102C4.31922 16.1728 4.31129 16.1978 4.3069 16.2148C4.30638 16.2177 4.30477 16.2272 4.30302 16.2434C4.30003 16.2711 4.2979 16.307 4.2979 16.3471C4.2979 16.3871 4.30003 16.423 4.30302 16.4508C4.30477 16.467 4.30637 16.4764 4.3069 16.4794C4.31129 16.4964 4.31922 16.5213 4.36102 16.5921C4.42793 16.7056 4.52784 16.8484 4.74071 17.1475C6.04763 18.9842 8.36894 21.9335 11.3162 24.4075C14.2897 26.9033 17.6961 28.7446 21.2037 28.7446C24.7112 28.7446 28.1176 26.9033 31.0911 24.4075C34.0384 21.9335 36.3597 18.9842 37.6666 17.1475C37.8795 16.8484 37.9794 16.7056 38.0463 16.5921C38.0881 16.5213 38.096 16.4963 38.1004 16.4794C38.1009 16.4764 38.1025 16.4669 38.1043 16.4508C38.1073 16.423 38.1094 16.3871 38.1094 16.3471C38.1094 16.307 38.1073 16.2711 38.1043 16.2434C38.1025 16.2272 38.1009 16.2178 38.1004 16.2148C38.096 16.1978 38.0881 16.1729 38.0463 16.102C37.9794 15.9885 37.8795 15.8458 37.6666 15.5466C36.3597 13.7099 34.0384 10.7606 31.0911 8.28666C28.1176 5.7908 24.7112 3.94951 21.2037 3.94951C17.6961 3.94951 14.2897 5.7908 11.3162 8.28667ZM9.14244 5.69693C12.3717 2.98629 16.5374 0.568359 21.2037 0.568359C25.8699 0.568359 30.0356 2.98629 33.2649 5.69693C36.5203 8.42948 39.0322 11.6339 40.4215 13.5863C40.4443 13.6184 40.4674 13.6506 40.4906 13.6832C40.8245 14.1501 41.197 14.671 41.3792 15.3889C41.5277 15.9744 41.5277 16.7198 41.3792 17.3052C41.197 18.0231 40.8245 18.544 40.4906 19.011C40.4674 19.0435 40.4443 19.0758 40.4215 19.1078C39.0322 21.0602 36.5203 24.2647 33.2649 26.9972C30.0356 29.7078 25.8699 32.1258 21.2037 32.1258C16.5374 32.1258 12.3717 29.7078 9.14244 26.9972C5.88705 24.2647 3.37508 21.0602 1.98581 19.1078C1.96301 19.0758 1.93994 19.0435 1.91669 19.011C1.5828 18.544 1.21031 18.0231 1.02816 17.3052C0.87961 16.7198 0.87961 15.9744 1.02816 15.3889C1.21031 14.671 1.5828 14.1501 1.91669 13.6832C1.93994 13.6506 1.96301 13.6184 1.98581 13.5863C3.37508 11.6339 5.88705 8.42948 9.14244 5.69693ZM21.2037 12.9659C19.3363 12.9659 17.8225 14.4797 17.8225 16.3471C17.8225 18.2144 19.3363 19.7282 21.2037 19.7282C23.071 19.7282 24.5848 18.2144 24.5848 16.3471C24.5848 14.4797 23.071 12.9659 21.2037 12.9659ZM14.4414 16.3471C14.4414 12.6123 17.4689 9.58476 21.2037 9.58476C24.9384 9.58476 27.966 12.6123 27.966 16.3471C27.966 20.0818 24.9384 23.1094 21.2037 23.1094C17.4689 23.1094 14.4414 20.0818 14.4414 16.3471Z" fill="#5B88DE"/>
</svg>
