<svg width="21" height="21" viewBox="0 0 21 21" fill="none" xmlns="http://www.w3.org/2000/svg">
<path fill-rule="evenodd" clip-rule="evenodd" d="M10.4 0.288086C4.78201 0.288086 0.227722 4.84237 0.227722 10.4604C0.227722 16.0784 4.78201 20.6326 10.4 20.6326C16.018 20.6326 20.5723 16.0784 20.5723 10.4604C20.5723 4.84237 16.018 0.288086 10.4 0.288086ZM14.7441 7.87049C15.0303 7.50003 14.9621 6.96766 14.5916 6.6814C14.2212 6.39514 13.6888 6.4634 13.4026 6.83385L9.22019 12.2463L7.35676 10.1759C7.04357 9.82786 6.50759 9.79965 6.1596 10.1128C5.81162 10.426 5.78341 10.962 6.09659 11.31L8.63966 14.1356C8.80784 14.3225 9.05028 14.4251 9.3015 14.4157C9.55272 14.4062 9.78679 14.2858 9.94051 14.0869L14.7441 7.87049Z" fill="#48b653"/>
</svg>
