<svg width="17" height="19" viewBox="0 0 17 19" fill="none" xmlns="http://www.w3.org/2000/svg">
<path fill-rule="evenodd" clip-rule="evenodd" d="M8.67384 2.03857C5.08399 2.03857 2.17384 4.94872 2.17384 8.53857V10.5386H2.75429C3.28844 10.5386 3.73428 10.5386 4.09851 10.5683C4.47839 10.5994 4.83505 10.6665 5.17231 10.8383C5.68976 11.102 6.11046 11.5227 6.37411 12.0401C6.54595 12.3774 6.61306 12.734 6.6441 13.1139C6.67386 13.4781 6.67385 13.924 6.67384 14.4581V15.5386C6.67384 15.551 6.67384 15.5632 6.67385 15.5752C6.67389 15.7715 6.67393 15.9227 6.6606 16.0581C6.532 17.3638 5.49902 18.3967 4.19339 18.5253C4.05799 18.5387 3.90676 18.5386 3.71046 18.5386C3.69842 18.5386 3.68622 18.5386 3.67384 18.5386C3.66146 18.5386 3.64926 18.5386 3.63722 18.5386C3.44092 18.5386 3.28969 18.5387 3.15429 18.5253C1.84866 18.3967 0.815676 17.3638 0.687082 16.0581C0.673747 15.9227 0.673785 15.7715 0.673834 15.5752C0.673837 15.5632 0.67384 15.551 0.67384 15.5386V8.53857C0.67384 4.1203 4.25556 0.538574 8.67384 0.538574C13.0921 0.538574 16.6738 4.1203 16.6738 8.53857V15.5386C16.6738 15.551 16.6738 15.5632 16.6738 15.5752C16.6739 15.7715 16.6739 15.9227 16.6606 16.0581C16.532 17.3638 15.499 18.3967 14.1934 18.5253C14.058 18.5387 13.9068 18.5386 13.7105 18.5386C13.6984 18.5386 13.6862 18.5386 13.6738 18.5386C13.6615 18.5386 13.6493 18.5386 13.6372 18.5386C13.4409 18.5386 13.2897 18.5387 13.1543 18.5253C11.8487 18.3967 10.8157 17.3638 10.6871 16.0581C10.6737 15.9227 10.6738 15.7715 10.6738 15.5752C10.6738 15.5632 10.6738 15.551 10.6738 15.5386V14.4581C10.6738 13.924 10.6738 13.4781 10.7036 13.1139C10.7346 12.734 10.8017 12.3774 10.9736 12.0401C11.2372 11.5227 11.6579 11.102 12.1754 10.8383C12.5126 10.6665 12.8693 10.5994 13.2492 10.5683C13.6134 10.5386 14.0592 10.5386 14.5934 10.5386H15.1738V8.53857C15.1738 4.94872 12.2637 2.03857 8.67384 2.03857ZM15.1738 12.0386H14.6238C14.0514 12.0386 13.6672 12.0392 13.3713 12.0633C13.0842 12.0868 12.9469 12.1287 12.8564 12.1748C12.6211 12.2947 12.4299 12.4859 12.3101 12.7211C12.2639 12.8116 12.2221 12.9489 12.1986 13.2361C12.1744 13.5319 12.1738 13.9161 12.1738 14.4886V15.5386C12.1738 15.7886 12.1747 15.8592 12.1799 15.9111C12.2383 16.5046 12.7078 16.9741 13.3013 17.0326C13.3532 17.0377 13.4238 17.0386 13.6738 17.0386C13.9239 17.0386 13.9945 17.0377 14.0464 17.0326C14.6398 16.9741 15.1094 16.5046 15.1678 15.9111C15.1729 15.8592 15.1738 15.7886 15.1738 15.5386V12.0386ZM2.17384 12.0386V15.5386C2.17384 15.7886 2.17475 15.8592 2.17986 15.9111C2.23831 16.5046 2.70785 16.9741 3.30132 17.0326C3.35319 17.0377 3.42382 17.0386 3.67384 17.0386C3.92386 17.0386 3.99449 17.0377 4.04636 17.0326C4.63983 16.9741 5.10937 16.5046 5.16782 15.9111C5.17293 15.8592 5.17384 15.7886 5.17384 15.5386V14.4886C5.17384 13.9161 5.17326 13.5319 5.14908 13.2361C5.12562 12.9489 5.08374 12.8116 5.0376 12.7211C4.91776 12.4859 4.72653 12.2947 4.49133 12.1748C4.40077 12.1287 4.26349 12.0868 3.97636 12.0633C3.68048 12.0392 3.29627 12.0386 2.72384 12.0386H2.17384Z" fill="black"/>
</svg>
