<svg width="44" height="44" viewBox="0 0 44 44" fill="none" xmlns="http://www.w3.org/2000/svg">
<path fill-rule="evenodd" clip-rule="evenodd" d="M22 4.5C12.335 4.5 4.5 12.335 4.5 22C4.5 31.665 12.335 39.5 22 39.5C31.665 39.5 39.5 31.665 39.5 22C39.5 12.335 31.665 4.5 22 4.5ZM1 22C1 10.402 10.402 1 22 1C33.598 1 43 10.402 43 22C43 33.598 33.598 43 22 43C10.402 43 1 33.598 1 22ZM12.6667 17.9167C12.6667 16.9502 13.4502 16.1667 14.4167 16.1667H16.75C17.7165 16.1667 18.5 16.9502 18.5 17.9167C18.5 18.8832 17.7165 19.6667 16.75 19.6667H14.4167C13.4502 19.6667 12.6667 18.8832 12.6667 17.9167ZM25.5 17.9167C25.5 16.9502 26.2835 16.1667 27.25 16.1667H29.5833C30.5498 16.1667 31.3333 16.9502 31.3333 17.9167C31.3333 18.8832 30.5498 19.6667 29.5833 19.6667H27.25C26.2835 19.6667 25.5 18.8832 25.5 17.9167ZM14.1637 27.3934C14.4926 26.9371 15.0208 26.6667 15.5833 26.6667H28.4167C28.9792 26.6667 29.5074 26.9371 29.8363 27.3934C30.1653 27.8498 30.2547 28.4364 30.0769 28.9701C28.7039 33.0889 25.4745 35.4167 22 35.4167C18.5255 35.4167 15.2961 33.0889 13.9231 28.9701C13.7453 28.4364 13.8347 27.8498 14.1637 27.3934ZM18.4855 30.1667C19.5037 31.3876 20.8072 31.9167 22 31.9167C23.1928 31.9167 24.4963 31.3876 25.5145 30.1667H18.4855Z" fill="#5B88DE" stroke="#5B88DE" stroke-linecap="round" stroke-linejoin="round"/>
</svg>
