<svg width="44" height="44" viewBox="0 0 44 44" fill="none" xmlns="http://www.w3.org/2000/svg">
<path fill-rule="evenodd" clip-rule="evenodd" d="M1.05444 7.41667C1.05444 3.87284 3.91123 1 7.43524 1H28.3179C29.279 1 30.0581 1.7835 30.0581 2.75C30.0581 3.7165 29.279 4.5 28.3179 4.5H7.43524C5.83342 4.5 4.53488 5.80584 4.53488 7.41667V8H36.4389C39.9629 8 42.8197 10.8728 42.8197 14.4167V36.5833C42.8197 40.1272 39.9629 43 36.4389 43H7.43524C3.91123 43 1.05444 40.1272 1.05444 36.5833V7.41667ZM4.53488 11.5V36.5833C4.53488 38.1942 5.83342 39.5 7.43524 39.5H36.4389C38.0407 39.5 39.3392 38.1942 39.3392 36.5833V14.4167C39.3392 12.8058 38.0407 11.5 36.4389 11.5H4.53488ZM31.7983 24.3333C31.1576 24.3333 30.6382 24.8557 30.6382 25.5C30.6382 26.1443 31.1576 26.6667 31.7983 26.6667C32.439 26.6667 32.9584 26.1443 32.9584 25.5C32.9584 24.8557 32.439 24.3333 31.7983 24.3333ZM27.1577 25.5C27.1577 22.9227 29.2354 20.8333 31.7983 20.8333C34.3612 20.8333 36.4389 22.9227 36.4389 25.5C36.4389 28.0773 34.3612 30.1667 31.7983 30.1667C29.2354 30.1667 27.1577 28.0773 27.1577 25.5Z" fill="#5B88DE" stroke="#5B88DE" stroke-linecap="round" stroke-linejoin="round"/>
</svg>
